<svg xmlns="http://www.w3.org/2000/svg" width="458" height="181" viewBox="0 0 458 181" role="img" aria-label="Israly">
<title>Israly</title>
<g transform="translate(34.0,35.7) scale(3.0846)"><path d="M17 2C11.5 2 7 6.5 7 12c0 7.2 10 18 10 18s10-10.8 10-18c0-5.5-4.5-10-10-10z" fill="#2f6db0"/><circle cx="17" cy="12" r="4.2" fill="#fbfaf6"/></g>
<g transform="translate(121.7,120.4)" fill="#1b2c3d"><path transform="translate(0.00,0) scale(0.12000,-0.12000)" d="M115.25 -9.5Q78.75 -9.5 62.875 1.375Q47 12.25 43.375 30.125Q39.75 48 39.75 67.25V614.25Q39.75 633.5 43.5 650.875Q47.25 668.25 63.125 679.125Q79 690 116.25 690Q153.5 690 169.0 679.125Q184.5 668.25 188.125 650.875Q191.75 633.5 191.75 613.25V66.25Q191.75 47 188.0 29.625Q184.25 12.25 168.375 1.375Q152.5 -9.5 115.25 -9.5Z"/><path transform="translate(27.84,0) scale(0.12000,-0.12000)" d="M220.75 -17Q194 -17 162.25 -11.0Q130.5 -5 100.75 6.5Q71 18 50.75 33.625Q30.5 49.25 27.75 69.25Q26 79.25 28.625 90.375Q31.25 101.5 37.875 114.25Q44.5 127 55.25 141Q63.25 151.5 72.875 154.75Q82.5 158 96.25 153.75Q112 151.25 128.25 143.5Q144.5 135.75 161.25 127.125Q178 118.5 195.875 112.125Q213.75 105.75 233 105.75Q261 105.75 276.625 114.125Q292.25 122.5 292.25 137.75Q292.25 148.5 285.625 155.875Q279 163.25 267.375 168.375Q255.75 173.5 240.625 177.625Q225.5 181.75 208.125 186.125Q190.75 190.5 172.5 196.25Q148.25 203.25 124.875 214.0Q101.5 224.75 82.875 242.25Q64.25 259.75 53.0 285.25Q41.75 310.75 41.75 348.25Q41.75 396.75 64.625 430.0Q87.5 463.25 131.5 480.75Q175.5 498.25 238.75 498.25Q257.25 498.25 275.0 495.875Q292.75 493.5 310.25 488.75Q327.75 484 344.75 476.75Q361.75 469.5 378.5 460.25Q409.25 445.5 410.25 421.875Q411.25 398.25 392.75 372.5Q381.5 355.75 369.625 348.25Q357.75 340.75 345.25 343.5Q329.25 347.5 310.625 356.625Q292 365.75 271.625 373.75Q251.25 381.75 230.5 381.75Q214.25 381.75 202.125 377.5Q190 373.25 183.875 365.5Q177.75 357.75 177.75 347.5Q177.75 335 185.5 327.25Q193.25 319.5 206.125 314.5Q219 309.5 236.125 305.75Q253.25 302 272.75 298.25Q299.75 293.25 328.125 284.5Q356.5 275.75 380.125 259.875Q403.75 244 418.25 216.75Q432.75 189.5 432.75 145.75Q432.75 67 377.75 25.0Q322.75 -17 220.75 -17Z"/><path transform="translate(82.80,0) scale(0.12000,-0.12000)" d="M115.5 -9.5Q79.25 -9.5 63.5 1.375Q47.75 12.25 44.5 30.125Q41.25 48 41.25 67.25V416Q41.25 436.25 44.875 453.25Q48.5 470.25 64.25 480.5Q80 490.75 116.5 490.75Q152 490.75 167.5 481.25Q183 471.75 186.75 459.25Q190.5 446.75 190.5 437.75L178.5 431.75Q181 436 189.5 446.25Q198 456.5 213.125 468.125Q228.25 479.75 249.5 488.0Q270.75 496.25 298.75 496.25Q309.5 496.25 323.0 494.375Q336.5 492.5 351.0 488.25Q365.5 484 377.625 476.5Q389.75 469 397.125 457.75Q404.5 446.5 404.5 430.75Q404.5 390 385.625 361.5Q366.75 333 338.25 333Q321.25 333 313.875 335.75Q306.5 338.5 302.375 341.625Q298.25 344.75 291.875 347.5Q285.5 350.25 270.25 350.25Q255.25 350.25 241.375 346.0Q227.5 341.75 216.25 333.25Q205 324.75 198.5 312.375Q192 300 192 284.5V65.25Q192 46 188.375 28.625Q184.75 11.25 168.875 0.875Q153 -9.5 115.5 -9.5Z"/><path transform="translate(133.56,0) scale(0.12000,-0.12000)" d="M449 -7.75Q411.75 -7.75 394.125 5.25Q376.5 18.25 376.75 37.25L387.25 54Q380.75 44 364.0 29.5Q347.25 15 319.875 3.5Q292.5 -8 253 -8Q207 -8 165.5 12.0Q124 32 91.875 67.25Q59.75 102.5 41.125 147.5Q22.5 192.5 22.5 242.75Q22.5 291.75 41.125 336.125Q59.75 380.5 92.375 415.25Q125 450 166.125 470.0Q207.25 490 253 490Q290.25 490 316.25 479.5Q342.25 469 359.5 454.75Q376.75 440.5 385.75 427.5L377.5 441.75Q376.75 465.5 394.5 478.125Q412.25 490.75 450 490.75Q486.25 490.75 501.5 479.75Q516.75 468.75 520.375 451.0Q524 433.25 524 413.25V68Q524 48.5 520.375 30.875Q516.75 13.25 501.375 2.75Q486 -7.75 449 -7.75ZM274.5 140.75Q300.75 140.75 322.125 154.375Q343.5 168 356.375 190.875Q369.25 213.75 369.25 241.5Q369.25 270.75 356.125 293.25Q343 315.75 321.125 329.125Q299.25 342.5 272.5 342.5Q243.75 342.5 221.125 328.75Q198.5 315 185.25 292.0Q172 269 172 240.25Q172 212.75 185.625 190.25Q199.25 167.75 222.5 154.25Q245.75 140.75 274.5 140.75Z"/></g>
<g transform="translate(121.7,120.4)" fill="#2f6db0"><path transform="translate(201.12,0) scale(0.12000,-0.12000)" d="M233 -9.5Q191.5 -9.5 160.0 -5.0Q128.5 -0.5 106.25 11.5Q84 23.5 69.875 44.875Q55.75 66.25 49.125 99.625Q42.5 133 42.5 181.5V643.75Q42.5 664 46.125 681.0Q49.75 698 65.625 708.875Q81.5 719.75 117.75 719.75Q154.25 719.75 169.75 709.0Q185.25 698.25 189.0 681.0Q192.75 663.75 192.75 643.75V189.25Q192.75 172.5 194.375 162.0Q196 151.5 200.5 145.625Q205 139.75 213.0 138.0Q221 136.25 233.5 136.25Q246.25 136.25 258.75 133.0Q271.25 129.75 279.875 115.0Q288.5 100.25 288.5 65.25Q288.5 28.75 279.875 12.875Q271.25 -3 258.375 -6.25Q245.5 -9.5 233 -9.5Z"/><path transform="translate(237.24,0) scale(0.12000,-0.12000)" d="M182.5 -210.75Q142 -192.75 135.375 -170.75Q128.75 -148.75 146.25 -112.5L396.75 448.5Q414.25 487.75 434.375 495.5Q454.5 503.25 495.75 486.5Q535.5 468.25 542.375 447.25Q549.25 426.25 533.25 391L281 -174.25Q264.25 -213.5 244.0 -221.125Q223.75 -228.75 182.5 -210.75ZM269.5 22 34.75 379.5Q13 413 17.25 435.125Q21.5 457.25 57 479.5Q95.75 503.5 117.25 498.125Q138.75 492.75 161.25 458.5L334 193.5Z"/></g>
</svg>